<?xml version="1.0" standalone="no"?>
<!DOCTYPE svg PUBLIC "-//W3C//DTD SVG 20010904//EN"
 "http://www.w3.org/TR/2001/REC-SVG-20010904/DTD/svg10.dtd">
<svg version="1.0" xmlns="http://www.w3.org/2000/svg"
 width="300.000000pt" height="300.000000pt" viewBox="0 0 300.000000 300.000000"
 preserveAspectRatio="xMidYMid meet">
<metadata>
Created by potrace 1.10, written by Peter Selinger 2001-2011
</metadata>
<g transform="translate(0.000000,300.000000) scale(0.100000,-0.100000)"
fill="#000000" stroke="none">
<path d="M1057 1416 c-57 -21 -103 -61 -128 -113 -24 -48 -24 -48 -24 -448 0
-393 0 -401 22 -441 27 -51 80 -99 125 -112 50 -15 116 -23 98 -12 -8 5 -26
10 -40 10 -40 0 -125 45 -149 78 -49 69 -51 90 -51 486 0 352 1 373 21 416 45
100 106 135 234 135 78 0 96 -3 135 -25 27 -15 58 -45 78 -74 32 -48 42 -54
21 -13 -24 48 -84 98 -133 112 -61 18 -158 19 -209 1z"/>
<path d="M314 1408 c-5 -7 -9 -29 -9 -48 1 -19 3 -266 3 -548 l2 -513 88 3 87
3 0 228 1 227 -3 -225 -3 -225 -80 0 -80 0 0 545 0 545 168 0 c164 0 170 -1
222 -27 79 -40 102 -90 111 -237 l6 -111 1 91 c3 158 -45 254 -143 284 -60 19
-358 26 -371 8z"/>
<path d="M1523 1414 c-10 -4 -12 -53 -11 -202 l3 -197 2 193 3 192 80 0 80 0
3 -197 3 -198 -1 205 0 205 -75 2 c-41 1 -81 -1 -87 -3z"/>
<path d="M1908 1408 c-15 -13 -161 -318 -155 -325 2 -1 38 69 80 157 l76 160
81 0 80 0 -71 -142 c-39 -79 -67 -138 -61 -133 14 14 142 270 142 284 0 16
-151 15 -172 -1z"/>
<path d="M2143 1413 c-10 -4 -13 -125 -13 -559 l0 -554 90 0 90 0 1 63 c0 34
0 112 -1 174 -1 94 2 118 19 152 29 56 25 66 -4 11 -23 -42 -24 -55 -25 -217
l0 -173 -80 0 -80 0 0 545 0 545 80 0 80 0 0 -217 c0 -119 2 -214 4 -212 8 8
11 424 3 437 -8 12 -137 16 -164 5z"/>
<path d="M2529 1408 c-16 -13 -203 -407 -196 -414 1 -2 46 88 98 199 l95 202
82 3 83 3 -101 -202 c-56 -110 -100 -202 -98 -204 6 -6 217 413 211 419 -12
12 -159 6 -174 -6z"/>
<path d="M1091 1234 c-20 -26 -21 -36 -19 -378 l3 -351 5 356 c5 333 6 358 24
378 11 12 16 21 13 21 -3 0 -15 -12 -26 -26z"/>
<path d="M1415 862 c0 -388 -1 -398 -22 -437 -38 -72 -114 -125 -177 -125 -14
0 -27 -4 -30 -8 -3 -5 17 -5 43 -1 57 9 120 46 150 88 49 68 51 89 51 485 0
204 -4 376 -8 383 -4 6 -7 -167 -7 -385z"/>
<path d="M482 1091 l-2 -163 60 4 c48 3 66 9 83 28 l22 24 -23 -19 c-13 -11
-44 -20 -77 -23 l-54 -4 -4 158 -3 159 -2 -164z"/>
<path d="M1254 860 c0 -184 2 -260 3 -167 2 92 2 242 0 335 -1 92 -3 16 -3
-168z"/>
<path d="M1897 1060 c-15 -26 -27 -56 -26 -66 0 -13 4 -10 9 8 4 15 18 44 30
63 12 20 21 38 18 40 -2 2 -16 -18 -31 -45z"/>
<path d="M1765 755 c8 -28 15 -54 15 -59 0 -5 3 -7 6 -4 6 7 -16 89 -28 103
-5 5 -2 -13 7 -40z"/>
<path d="M525 773 c81 -5 95 -11 110 -46 9 -19 14 -25 15 -14 0 10 -11 29 -25
42 -21 22 -32 25 -87 23 -59 -1 -59 -2 -13 -5z"/>
<path d="M2564 763 c45 -158 90 -302 94 -299 2 3 -7 42 -21 88 -14 46 -35 116
-47 156 -12 39 -24 72 -27 72 -2 0 -2 -8 1 -17z"/>
<path d="M818 587 c4 -235 8 -260 10 -52 0 99 -2 188 -6 197 -4 10 -6 -56 -4
-145z"/>
<path d="M1512 518 l-2 -218 90 0 90 0 -2 183 -3 182 -2 -177 -3 -178 -80 0
-80 0 -3 213 -2 212 -3 -217z"/>
<path d="M652 510 c-1 -91 1 -175 4 -187 6 -22 11 -23 98 -21 l91 2 -87 3
c-49 2 -89 5 -90 6 -1 1 -5 83 -8 182 l-6 180 -2 -165z"/>
<path d="M2001 576 c-2 -17 74 -260 76 -246 2 8 -15 69 -36 135 -22 66 -40
116 -40 111z"/>
<path d="M2456 521 c7 -38 42 -142 43 -126 1 6 -10 44 -24 85 -13 41 -22 60
-19 41z"/>
<path d="M1232 489 c-29 -46 -93 -49 -132 -7 -11 12 -20 17 -20 11 0 -16 32
-41 63 -48 33 -9 84 10 98 37 14 26 6 32 -9 7z"/>
<path d="M2660 443 c0 -5 7 -30 15 -57 24 -79 25 -77 -67 -74 l-81 3 -14 35
-13 35 6 -35 c4 -19 8 -38 11 -42 2 -5 44 -8 94 -8 102 0 102 -1 73 96 -14 48
-24 68 -24 47z"/>
<path d="M1943 303 c26 -2 68 -2 95 0 26 2 4 3 -48 3 -52 0 -74 -1 -47 -3z"/>
</g>
</svg>
