<?xml version="1.0" standalone="no"?>
<!DOCTYPE svg PUBLIC "-//W3C//DTD SVG 20010904//EN"
 "http://www.w3.org/TR/2001/REC-SVG-20010904/DTD/svg10.dtd">
<svg version="1.0" xmlns="http://www.w3.org/2000/svg"
 width="768.000000pt" height="768.000000pt" viewBox="0 0 768.000000 768.000000"
 preserveAspectRatio="xMidYMid meet">

<g transform="translate(0.000000,768.000000) scale(0.100000,-0.100000)"
fill="#FFFFFF" stroke="none">
<path d="M0 3840 l0 -3840 3840 0 3840 0 0 3840 0 3840 -3840 0 -3840 0 0
-3840z m3210 -222 c218 -58 357 -207 422 -453 10 -40 13 -239 13 -970 0 -875
-1 -923 -19 -990 -39 -142 -120 -271 -214 -340 -216 -159 -608 -165 -844 -14
-101 65 -179 179 -230 335 l-23 69 0 935 c0 867 1 939 18 995 83 280 264 432
542 455 116 10 249 1 335 -22z m-1525 -32 c99 -25 205 -78 255 -128 129 -129
170 -270 170 -589 0 -221 -15 -316 -67 -427 -40 -84 -116 -167 -181 -196 l-43
-19 63 -34 c82 -44 123 -85 159 -160 64 -134 70 -190 78 -693 4 -280 11 -465
18 -480 5 -14 13 -37 17 -52 l6 -28 -224 0 c-124 0 -227 4 -230 9 -3 5 -13 44
-21 88 -12 60 -15 161 -15 443 0 201 -5 398 -10 437 -23 175 -98 232 -307 233
l-113 0 0 -605 0 -605 -222 2 -223 3 -3 1400 c-1 770 0 1406 3 1413 4 11 80
13 412 9 345 -3 419 -7 478 -21z m2635 -566 c5 -551 6 -583 21 -550 9 19 41
87 72 150 67 141 135 284 237 500 43 91 110 232 149 314 39 81 71 152 71 156
0 17 39 20 241 20 144 0 209 -3 209 -11 0 -10 -142 -291 -412 -816 l-109 -213
81 -267 c45 -148 90 -297 100 -333 20 -69 297 -991 330 -1099 11 -35 20 -70
20 -78 0 -10 -45 -13 -229 -13 l-229 0 -16 48 c-8 26 -31 101 -51 167 -19 66
-44 149 -55 185 -11 36 -47 157 -80 270 -75 253 -90 303 -138 460 l-38 125
-87 -178 -87 -178 0 -449 0 -450 -222 2 -223 3 -3 1400 c-1 770 0 1406 3 1413
3 10 53 12 222 10 l218 -3 5 -585z m1590 1 l5 -584 194 409 c107 225 230 483
273 572 43 90 78 167 78 172 0 4 7 11 16 14 27 10 422 7 429 -4 3 -5 -56 -130
-131 -277 -75 -148 -192 -377 -261 -511 l-124 -242 66 -218 c35 -119 72 -239
80 -267 8 -27 83 -275 165 -550 82 -275 159 -531 171 -570 11 -38 25 -83 30
-99 5 -16 9 -42 9 -57 l0 -29 -224 0 -224 0 -21 62 c-19 60 -61 200 -101 338
-39 135 -161 541 -218 730 l-38 125 -87 -178 -87 -178 0 -450 0 -449 -222 2
-223 3 -3 1400 c-1 770 0 1406 3 1413 3 10 53 12 222 10 l218 -3 5 -584z"/>
<path d="M2883 3223 c-26 -9 -54 -29 -73 -52 -60 -77 -60 -73 -60 -976 0 -879
1 -896 50 -966 40 -55 86 -74 180 -74 94 0 140 19 180 75 50 70 51 84 47 991
-3 935 1 887 -69 959 -55 58 -163 76 -255 43z"/>
<path d="M1240 2799 l0 -401 133 4 c116 3 137 7 174 27 96 55 113 111 113 380
0 233 -9 279 -64 335 -45 44 -94 56 -235 56 l-121 0 0 -401z"/>
</g>
</svg>
