<svg version="1.1" id="Layer_1" xmlns="http://www.w3.org/2000/svg" xmlns:xlink="http://www.w3.org/1999/xlink" x="0px" y="0px"
	 width="100%" viewBox="0 0 768 768" enable-background="new 0 0 768 768" xml:space="preserve">
<path fill="#000000" opacity="1.000000" stroke="none" 
	d="
M761.056152,769.000000 
	C507.379364,769.000000 254.214691,769.000000 1.024999,769.000000 
	C1.024999,513.018677 1.024999,257.037323 1.024999,1.027997 
	C256.979340,1.027997 512.958679,1.027997 768.968994,1.027997 
	C768.968994,256.977325 768.968994,512.954651 768.968994,769.000000 
	C766.522888,769.000000 764.045532,769.000000 761.056152,769.000000 
M514.947266,446.960876 
	C514.947266,446.960876 514.866150,446.955750 515.590759,446.827759 
	C516.373108,444.855347 517.155518,442.882965 517.967957,440.989563 
	C517.967957,440.989563 517.892029,440.952454 518.672058,440.963745 
	C519.434570,438.720093 520.197021,436.476440 521.570740,433.816620 
	C523.920166,428.822571 526.269592,423.828552 529.396667,418.956116 
	C531.826660,415.359924 534.256714,411.763702 537.272034,407.301361 
	C533.927673,406.712280 531.908386,406.065979 529.883484,406.048126 
	C518.554565,405.948151 507.223083,405.915009 495.895752,406.080872 
	C493.930298,406.109650 491.980347,407.199127 489.282471,407.986206 
	C485.787842,408.938354 485.005127,411.563812 484.457153,415.093231 
	C482.997375,418.761810 481.537628,422.430389 480.035431,426.021637 
	C480.035431,426.021637 480.120117,426.046478 479.402740,426.182678 
	C477.669952,430.353607 475.937164,434.524567 474.112396,438.586670 
	C474.112396,438.586670 474.239563,438.522430 473.543945,438.918671 
	C471.000977,444.611786 468.458008,450.304901 465.965240,455.922821 
	C465.965240,455.922821 466.050415,455.953064 465.487274,456.064209 
	C465.061615,456.840149 464.635956,457.616119 464.100098,459.215454 
	C453.939270,481.180725 443.778473,503.145966 433.617645,525.111206 
	C432.941803,520.140503 432.945862,515.326416 432.941101,510.512329 
	C432.907837,476.694794 432.872742,442.877258 432.743286,408.262451 
	C429.776428,407.895630 426.809540,407.528809 423.145966,406.689484 
	C412.328796,406.487518 401.511871,406.259460 390.693787,406.158783 
	C390.137970,406.153625 389.572021,407.239838 388.178284,408.050964 
	C387.804840,409.347870 387.097778,410.647003 387.106506,411.941345 
	C387.350739,448.312347 387.709412,484.682556 387.951019,521.053528 
	C388.046021,535.355408 387.905884,549.658875 387.190887,564.483887 
	C387.135864,605.950317 387.106689,647.416870 386.984436,688.883118 
	C386.972717,692.867065 389.519043,692.950195 392.233582,692.958496 
	C404.391449,692.995850 416.550568,693.048584 428.706055,692.874084 
	C430.096497,692.854126 431.467010,691.445068 432.923187,689.785889 
	C432.929016,661.787109 432.919098,633.788208 432.978546,605.789551 
	C432.982239,604.051514 433.210236,602.176270 433.888580,600.604248 
	C435.611145,596.612427 437.751923,592.803040 439.538544,588.836487 
	C442.987122,581.180237 446.307007,573.465881 450.033417,564.970459 
	C451.326416,566.986572 452.581848,568.181152 452.918610,569.594604 
	C454.925568,578.018616 456.308197,586.610352 458.671021,594.926819 
	C463.838654,613.115540 469.495117,631.165100 474.899475,649.287170 
	C479.029785,663.136963 483.079529,677.010864 487.268951,691.690491 
	C488.103485,692.122803 488.935852,692.927002 489.772888,692.931885 
	C503.519623,693.011841 517.267334,693.031982 531.013306,692.903503 
	C531.960205,692.894714 532.895203,691.607788 533.955139,690.087158 
	C533.274902,686.439514 532.915222,682.695984 531.857483,679.161316 
	C527.838013,665.729187 523.637024,652.350769 519.416199,638.979858 
	C516.719666,630.437866 513.631897,622.013367 511.135986,613.415283 
	C505.588074,594.303650 500.470428,575.066467 494.846436,555.977966 
	C491.427704,544.374329 487.364838,532.961304 483.645874,521.445068 
	C481.988220,516.312012 480.717773,511.402130 484.139923,506.122681 
	C487.582520,500.811554 490.164825,494.927307 492.950653,489.209686 
	C496.795807,481.318054 500.377441,473.297272 504.267639,465.428589 
	C506.673309,460.562561 509.442505,455.876282 512.789124,450.993347 
	C513.500549,449.623291 514.211975,448.253235 514.947266,446.960876 
M245.052734,672.954224 
	C245.052734,672.954224 245.068436,672.873230 245.028107,673.601196 
	C247.293396,676.512512 248.771408,680.286072 253.007019,680.981384 
	C253.007019,680.981384 253.051712,680.914124 253.033524,681.645752 
	C255.865952,686.777527 260.703766,688.338806 266.007446,688.995361 
	C266.007446,688.995361 266.014862,688.929932 266.029449,689.701416 
	C271.552948,695.014648 279.083069,694.346863 285.741089,695.745178 
	C291.502136,696.955078 297.726227,695.801453 303.731964,696.038696 
	C315.402405,696.499817 326.217163,693.441284 336.356689,688.050659 
	C339.544769,686.355652 342.027618,683.334106 345.128876,680.310974 
	C349.105255,675.239868 353.081635,670.168762 357.838257,665.002808 
	C358.446350,664.840393 359.462891,664.841553 359.602905,664.491821 
	C363.290283,655.281738 367.352295,646.135803 365.922577,634.838684 
	C365.979340,633.246765 366.036102,631.654846 366.800385,629.671021 
	C367.194397,628.307678 367.931396,626.944641 367.932953,625.580872 
	C367.991608,574.256287 367.999115,522.931641 367.903046,471.607208 
	C367.900116,470.048370 366.721680,468.491760 365.986725,466.036224 
	C365.942627,465.133453 365.898529,464.230682 366.010101,462.535309 
	C366.378723,455.527771 366.032440,448.599762 362.901520,442.160034 
	C361.520630,439.319733 359.721405,436.682739 358.013031,433.202118 
	C355.525391,426.523834 351.298340,421.351105 344.980438,418.024139 
	C344.980438,418.024139 344.947754,418.101257 344.972504,417.368347 
	C344.455139,416.560211 344.106720,415.537567 343.394623,414.976685 
	C334.965912,408.337799 324.914978,404.031189 314.730133,403.400391 
	C296.879730,402.294769 278.410645,400.484100 261.804932,410.141815 
	C255.018692,414.088623 248.190460,418.251984 245.079117,426.074829 
	C245.079117,426.074829 245.170135,426.089142 244.409210,426.038879 
	C237.891479,432.702667 234.762924,440.852112 233.949539,449.921661 
	C233.949539,449.921661 234.035278,449.937653 233.709015,449.913025 
	C233.478317,449.956207 233.327347,450.089325 233.117645,451.242432 
	C232.468185,458.126373 231.818710,465.010345 231.050751,472.838959 
	C231.113586,491.743805 231.176437,510.648682 231.214081,529.617310 
	C231.214081,529.617310 231.273071,529.582336 230.733002,529.980408 
	C230.913330,530.459595 231.093643,530.938782 231.244507,531.404541 
	C231.244507,531.404541 231.246780,531.430176 231.036011,532.445984 
	C231.103943,533.822083 231.171875,535.198181 231.259018,536.535645 
	C231.259018,536.535645 231.272141,536.578979 230.801697,536.895752 
	C230.919937,537.240967 231.038162,537.586243 231.136414,537.973877 
	C231.136414,537.973877 231.089828,537.968872 231.014557,538.905762 
	C231.065475,568.633728 231.116379,598.361633 231.026978,628.947083 
	C231.412415,633.617310 231.653809,638.306030 232.251358,642.948975 
	C232.504639,644.916931 233.505676,646.788574 234.022064,649.577942 
	C234.368042,655.352905 235.848953,660.697021 239.987747,665.808411 
	C241.703018,668.184753 243.418274,670.561096 245.052734,672.954224 
M654.670166,485.962585 
	C655.429443,483.948334 656.188721,481.934082 656.981750,479.991760 
	C656.981750,479.991760 656.908752,479.960327 657.674744,479.966309 
	C661.458191,472.928070 665.333496,465.937042 668.982971,458.829987 
	C670.596069,455.688507 671.751282,452.311890 673.847717,448.964569 
	C676.205322,443.609406 678.562927,438.254242 680.965820,432.992279 
	C680.965820,432.992279 680.882812,432.930298 681.646118,432.956055 
	C685.593262,425.969818 689.714355,419.074158 693.418091,411.961182 
	C695.435181,408.087524 693.933716,406.047119 689.526489,406.029022 
	C677.578552,405.979950 665.628845,405.917175 653.683777,406.108368 
	C651.760193,406.139130 649.857056,407.445679 647.205566,408.055603 
	C646.503601,409.750824 645.801636,411.446014 645.070312,413.051483 
	C645.070312,413.051483 645.158691,413.084595 644.373962,413.041565 
	C641.925903,417.775543 639.287903,422.422424 637.069092,427.261505 
	C632.341736,437.571655 627.831848,447.981537 623.070251,459.168152 
	C621.092590,463.593079 619.114929,468.018005 616.944946,472.566711 
	C616.944946,472.566711 616.791199,472.989044 616.407104,473.276611 
	C616.407104,473.276611 616.121948,473.662506 615.560913,473.999756 
	C613.696167,478.619507 611.831421,483.239258 609.817078,488.003021 
	C609.817078,488.003021 609.616638,488.057404 609.484558,488.002991 
	C609.484558,488.002991 609.341370,488.202393 609.111267,489.009094 
	C603.915894,500.130615 598.720520,511.252136 593.525146,522.373657 
	C593.008301,522.212341 592.491394,522.051086 591.974548,521.889771 
	C591.974548,517.987061 591.974548,514.084351 592.670166,509.636444 
	C592.754761,476.346222 592.813416,443.055847 592.963867,409.765930 
	C592.979004,406.417908 591.218872,406.027039 588.529907,406.043579 
	C576.875549,406.115326 565.220520,406.065704 553.565735,406.077637 
	C548.026733,406.083313 545.885681,408.126556 546.013306,413.844543 
	C546.160461,420.439270 546.921326,427.026398 546.927063,433.617218 
	C546.993347,509.872559 546.967224,586.127991 546.963196,662.383362 
	C546.963135,663.548462 546.907654,664.713867 546.918274,665.878662 
	C546.994873,674.274963 547.081848,682.671204 547.378967,691.830811 
	C548.231934,692.218323 549.082947,692.938660 549.938110,692.943481 
	C562.816467,693.016907 575.695984,693.048767 588.573242,692.907654 
	C589.723877,692.895081 590.860596,691.616699 592.006470,691.006165 
	C592.006470,691.006165 591.926636,691.010925 592.719116,690.633850 
	C592.759033,660.289246 592.798950,629.944641 593.276733,599.034180 
	C598.504395,587.983765 603.731995,576.933411 609.135864,565.510559 
	C612.262756,575.488281 615.308228,584.693542 618.025879,593.994629 
	C622.433960,609.081055 626.568115,624.247375 630.927979,639.348145 
	C634.931885,653.215637 639.081177,667.041199 643.028931,681.738770 
	C642.999329,691.362000 644.580566,692.999878 653.901489,693.000000 
	C663.723511,693.000122 673.546509,693.083008 683.367371,692.977600 
	C694.105164,692.862488 693.356079,695.201660 692.704712,682.543396 
	C692.548218,679.502258 692.730225,674.621094 687.938904,672.131653 
	C686.940491,668.782776 685.930298,665.437317 684.945740,662.084351 
	C681.956421,651.903442 679.041321,641.700134 675.972412,631.543396 
	C673.728943,624.118713 671.223755,616.773438 668.950012,609.357605 
	C665.289612,597.419067 661.706970,585.456482 658.130432,573.492493 
	C657.297974,570.707703 656.622375,567.876038 656.023132,564.372253 
	C654.316345,558.590820 652.609558,552.809387 650.979858,547.007446 
	C650.979858,547.007446 650.937439,547.074951 650.988342,546.295471 
	C650.210571,544.584106 649.432739,542.872803 648.042236,540.513184 
	C646.581848,535.118713 644.992615,529.754944 643.696655,524.321289 
	C642.365601,518.740051 638.474854,513.420654 642.778198,507.270782 
	C645.105835,503.944550 646.332703,499.848022 648.777710,495.994263 
	C652.233459,493.517853 653.815125,490.084137 653.965942,485.983795 
	C653.965942,485.983795 653.886414,485.946594 654.670166,485.962585 
M212.970688,472.057098 
	C212.306824,463.915131 211.733109,455.763458 210.862488,447.643677 
	C210.756332,446.653687 209.055008,445.834717 207.936111,444.143982 
	C205.571426,439.284271 203.206741,434.424561 200.936310,428.751404 
	C200.379578,427.456238 200.084106,425.947021 199.225616,424.899048 
	C190.732498,414.531830 178.839905,410.719513 166.367676,408.063568 
	C163.362976,407.423737 160.372772,406.174774 157.369537,406.154755 
	C133.566940,405.995697 109.762596,406.113434 85.959381,406.009796 
	C82.767418,405.995880 80.869431,407.228210 79.112625,410.400452 
	C78.878372,413.300812 78.358643,416.211761 78.465919,419.099426 
	C78.736450,426.381775 79.289436,433.653595 79.930649,441.856445 
	C79.941826,517.551697 79.953217,593.246887 79.961884,668.942139 
	C79.961998,669.939819 79.901291,670.937744 79.913322,671.935059 
	C79.990105,678.301514 80.079346,684.667786 80.084831,691.887756 
	C80.710876,692.254639 81.335365,692.938660 81.963181,692.941711 
	C95.114716,693.006165 108.266716,692.967346 121.418411,693.012146 
	C125.467087,693.025940 126.076385,690.816467 126.066124,687.280151 
	C125.958862,650.321960 125.999977,613.363403 126.000000,576.404907 
	C126.000000,574.660034 126.000000,572.915100 126.000000,570.944031 
	C134.092865,570.944031 141.410568,570.944031 149.203888,571.566711 
	C160.082825,574.435486 164.731155,578.353638 165.978073,593.239075 
	C166.312378,595.320496 166.920914,597.400024 166.934769,599.483582 
	C167.004562,609.973145 166.919189,620.463684 166.186707,631.456970 
	C166.124878,644.725769 165.997925,657.994934 166.086105,671.262756 
	C166.096756,672.866577 167.269623,674.462585 168.007614,676.893982 
	C168.727005,680.546265 169.446396,684.198486 170.028915,688.700317 
	C169.495605,692.435364 171.549164,693.075500 174.736710,693.045837 
	C186.958878,692.931946 199.184052,693.087830 211.404526,692.904602 
	C213.227890,692.877258 215.032166,691.575256 216.921173,690.223145 
	C216.891342,689.795410 216.861526,689.367676 216.981262,688.096313 
	C215.931763,682.070923 214.882263,676.045471 213.972305,669.089539 
	C213.981537,648.781372 214.006744,628.473083 213.964798,608.165039 
	C213.961929,606.779175 213.455383,605.394409 213.044342,603.077576 
	C212.995453,597.983093 213.485168,592.808350 212.741699,587.817322 
	C212.039795,583.105164 212.103241,577.896851 207.977753,573.321594 
	C206.004913,563.272766 200.570953,555.791809 191.505997,550.942444 
	C189.856369,550.059937 188.354584,548.893005 186.816544,547.811829 
	C184.585464,546.243469 185.237396,545.173645 187.289291,543.933655 
	C190.600922,541.932434 194.103714,540.042053 196.898422,537.432922 
	C203.032242,531.706360 206.998108,524.559021 209.577072,515.885071 
	C210.711151,512.048828 212.666687,508.245300 212.820969,504.370056 
	C213.236908,493.923584 212.885010,483.446472 212.970688,472.057098 
z"/>
<path fill="#F5F3F3" opacity="1.000000" stroke="none" 
	d="
M208.900604,516.330933 
	C206.998108,524.559021 203.032242,531.706360 196.898422,537.432922 
	C194.103714,540.042053 190.600922,541.932434 187.289291,543.933655 
	C185.237396,545.173645 184.585464,546.243469 186.816544,547.811829 
	C188.354584,548.893005 189.856369,550.059937 191.505997,550.942444 
	C200.570953,555.791809 206.004913,563.272766 208.150360,574.076660 
	C209.684601,584.606995 211.046249,594.382324 212.382355,604.615112 
	C212.360718,620.299683 212.317215,635.526978 212.390976,650.753662 
	C212.422150,657.188416 212.700104,663.621948 212.775604,670.494141 
	C214.067459,676.934814 215.449570,682.937378 216.831696,688.939941 
	C216.861526,689.367676 216.891342,689.795410 216.424896,690.559143 
	C202.993118,690.902405 190.055634,690.789917 177.123596,691.005005 
	C174.060257,691.055847 171.845566,690.322510 170.165771,687.850769 
	C169.446396,684.198486 168.727005,680.546265 168.098434,676.024048 
	C168.086563,660.442017 167.983871,645.729919 167.988922,630.558716 
	C168.100632,620.805908 168.271896,611.507568 168.017868,602.220886 
	C167.928787,598.963989 166.794769,595.735779 166.137894,592.494446 
	C164.731155,578.353638 160.082825,574.435486 148.693481,570.969177 
	C140.582413,570.371643 132.981766,570.371643 124.752983,570.371643 
	C124.752983,610.360840 124.752983,650.550049 124.752983,690.873535 
	C109.806755,690.873535 95.485580,690.873535 81.083298,690.418884 
	C80.965164,687.968384 80.896240,685.972595 80.895744,683.976746 
	C80.876137,605.089844 80.865776,526.202881 80.832291,447.315979 
	C80.831383,445.170166 80.589561,443.024445 80.524277,440.422302 
	C80.578690,430.016357 80.568916,420.066803 80.834183,409.742554 
	C82.733170,409.189636 84.356918,408.858398 85.981087,408.856323 
	C107.064445,408.829193 128.148224,408.773834 149.231155,408.878387 
	C169.124725,408.976990 187.385818,413.322571 200.842041,429.564850 
	C203.206741,434.424561 205.571426,439.284271 208.011108,444.938110 
	C209.407593,454.825714 210.729095,463.919159 211.946564,473.399963 
	C211.725098,488.028229 212.393036,502.323425 208.900604,516.330933 
M160.026154,522.027893 
	C160.026154,522.027893 160.052719,522.102173 160.791031,522.286377 
	C161.210663,521.445984 161.630295,520.605530 162.478409,519.193604 
	C163.708282,514.088135 165.755112,509.021759 166.001541,503.869263 
	C166.550079,492.400085 166.105515,480.886749 166.240692,469.393494 
	C166.361252,459.144257 157.283829,449.262878 146.994919,449.013458 
	C140.011658,448.844147 133.018585,449.078094 125.174530,449.342407 
	C125.118904,475.621918 125.061569,501.901459 125.032883,528.180969 
	C125.032608,528.433838 125.412933,528.687134 125.741997,529.098083 
	C132.097473,529.098083 138.622650,529.562988 145.037216,528.921692 
	C148.815796,528.544006 152.418930,526.411255 156.023041,525.051880 
	C156.023041,525.051880 156.036987,525.130188 156.688736,525.563538 
	C157.491470,524.727051 158.294205,523.890503 159.022797,523.025391 
	C159.022797,523.025391 159.042282,523.102417 159.757324,523.275757 
	C159.872742,522.864929 159.988159,522.454102 160.026154,522.027893 
z"/>
<path fill="#F5F4F4" opacity="1.000000" stroke="none" 
	d="
M366.092865,630.062927 
	C366.036102,631.654846 365.979340,633.246765 365.690308,635.557617 
	C364.577637,646.442993 361.679718,656.021545 357.057983,665.097656 
	C353.081635,670.168762 349.105255,675.239868 344.638977,680.665466 
	C327.269684,693.172058 308.319611,696.654236 288.100677,693.839172 
	C280.655243,692.802490 273.372070,690.600403 266.014862,688.929932 
	C266.014862,688.929932 266.007446,688.995361 265.962952,688.639343 
	C261.629547,685.826904 257.340637,683.370483 253.051712,680.914124 
	C253.051712,680.914124 253.007019,680.981384 253.092407,680.620850 
	C250.474686,677.797974 247.771561,675.335632 245.068436,672.873230 
	C245.068436,672.873230 245.052734,672.954224 245.311218,672.625244 
	C243.964081,669.870911 242.358475,667.445618 240.666351,664.682129 
	C238.442184,659.130676 236.304520,653.917358 234.166870,648.704041 
	C233.505676,646.788574 232.504639,644.916931 232.251358,642.948975 
	C231.653809,638.306030 231.412415,633.617310 231.447021,628.260376 
	C231.919785,598.386841 231.978867,569.199890 231.985992,540.013000 
	C231.986145,539.331665 231.401642,538.650269 231.089828,537.968872 
	C231.089828,537.968872 231.136414,537.973877 231.391815,537.632996 
	C231.522202,537.054382 231.397171,536.816711 231.272141,536.578979 
	C231.272141,536.578979 231.259018,536.535645 231.542068,536.272217 
	C231.632324,534.482544 231.439545,532.956360 231.246765,531.430176 
	C231.246780,531.430176 231.244507,531.404541 231.471527,530.951538 
	C231.556732,530.193115 231.414902,529.887695 231.273071,529.582336 
	C231.273071,529.582336 231.214081,529.617310 231.525757,529.234863 
	C231.916199,510.570160 232.005127,492.287903 232.035156,474.005493 
	C232.036316,473.302216 231.470734,472.598053 231.169235,471.894287 
	C231.818710,465.010345 232.468185,458.126373 233.348083,450.796326 
	C233.855698,450.352173 234.007950,450.214630 234.035278,449.937653 
	C234.035278,449.937653 233.949539,449.921661 234.297211,449.889343 
	C237.312195,443.713226 239.966644,437.563751 242.654755,431.429077 
	C243.444122,429.627594 244.329025,427.867950 245.170135,426.089142 
	C245.170135,426.089142 245.079117,426.074829 245.404526,426.349701 
	C251.727615,419.525848 258.628906,413.335297 267.459381,410.326599 
	C293.540894,401.440216 318.990662,401.172272 342.795471,417.435822 
	C343.387909,417.840576 344.224854,417.887482 344.947754,418.101257 
	C344.947754,418.101257 344.980438,418.024139 344.842407,418.384460 
	C348.855103,423.816498 353.005829,428.888275 357.232178,434.309875 
	C360.156647,444.215759 363.005524,453.771851 365.854431,463.327911 
	C365.898529,464.230682 365.942627,465.133453 365.950806,466.951050 
	C365.972076,487.497650 366.062683,507.129333 366.078979,526.761108 
	C366.107605,561.195068 366.090698,595.628967 366.092865,630.062927 
M314.868042,648.409180 
	C314.956451,647.968933 315.044861,647.528687 315.035828,647.054688 
	C315.035828,647.054688 315.091492,647.141479 315.822418,647.528687 
	C316.234802,646.602295 316.647217,645.675903 317.479065,644.161804 
	C318.985992,637.804016 321.745239,631.456726 321.798859,625.086670 
	C322.177216,580.111816 322.105225,535.131897 321.914520,490.154633 
	C321.874329,480.676575 321.404266,471.095978 319.880402,461.767120 
	C318.940979,456.015930 316.695496,449.651428 309.695435,447.956696 
	C305.171936,446.861511 300.459717,446.324982 295.802063,446.054169 
	C287.738861,445.585449 282.246796,449.434570 279.451813,456.990234 
	C278.234406,460.281403 277.252747,463.659821 276.013702,467.925110 
	C276.006226,520.821655 275.987610,573.718262 276.027222,626.614807 
	C276.029053,629.036682 276.554688,631.458191 276.897980,634.697876 
	C278.328156,645.339661 286.573090,653.369324 296.575897,654.316711 
	C302.051666,654.011658 307.908142,655.095703 312.004974,650.023193 
	C312.004974,650.023193 312.058990,650.099792 312.819641,650.349304 
	C313.271606,649.603699 313.723602,648.858032 314.097046,648.035034 
	C314.097046,648.035034 314.114441,648.143860 314.868042,648.409180 
z"/>
<path fill="#F5F3F3" opacity="1.000000" stroke="none" 
	d="
M432.838196,409.059723 
	C432.872742,442.877258 432.907837,476.694794 432.941101,510.512329 
	C432.945862,515.326416 432.941803,520.140503 433.617645,525.111206 
	C443.778473,503.145966 453.939270,481.180725 464.428284,458.796112 
	C465.187805,457.568878 465.619110,456.760986 466.050415,455.953064 
	C466.050415,455.953064 465.965240,455.922821 466.302856,455.943115 
	C469.173492,450.149750 471.706543,444.336090 474.239563,438.522430 
	C474.239563,438.522430 474.112396,438.586670 474.517578,438.532715 
	C476.655212,434.334625 478.387665,430.190552 480.120117,426.046478 
	C480.120117,426.046478 480.035431,426.021637 480.415161,426.117798 
	C482.313049,422.943085 483.831238,419.672150 485.611877,416.170593 
	C487.300049,413.474121 488.725708,411.008331 490.609436,408.560242 
	C504.957153,408.577942 518.846802,408.577942 533.304504,408.577942 
	C531.485229,412.560333 530.052185,415.697449 528.619080,418.834534 
	C526.269592,423.828552 523.920166,428.822571 520.961853,434.157318 
	C519.532654,436.649506 518.712341,438.800964 517.892029,440.952454 
	C517.892029,440.952454 517.967957,440.989563 517.585266,440.915894 
	C516.423767,442.880066 515.644958,444.917908 514.866150,446.955750 
	C514.866150,446.955750 514.947266,446.960876 514.588989,446.799683 
	C513.503296,448.128784 512.775879,449.619080 512.048523,451.109344 
	C509.442505,455.876282 506.673309,460.562561 504.267639,465.428589 
	C500.377441,473.297272 496.795807,481.318054 492.950653,489.209686 
	C490.164825,494.927307 487.582520,500.811554 484.139923,506.122681 
	C480.717773,511.402130 481.988220,516.312012 483.645874,521.445068 
	C487.364838,532.961304 491.427704,544.374329 494.846436,555.977966 
	C500.470428,575.066467 505.588074,594.303650 511.135986,613.415283 
	C513.631897,622.013367 516.719666,630.437866 519.416199,638.979858 
	C523.637024,652.350769 527.838013,665.729187 531.857483,679.161316 
	C532.915222,682.695984 533.274902,686.439514 533.437622,690.502136 
	C517.668396,690.902771 502.416748,690.888367 487.165100,690.874023 
	C483.079529,677.010864 479.029785,663.136963 474.899475,649.287170 
	C469.495117,631.165100 463.838654,613.115540 458.671021,594.926819 
	C456.308197,586.610352 454.925568,578.018616 452.918610,569.594604 
	C452.581848,568.181152 451.326416,566.986572 450.033417,564.970459 
	C446.307007,573.465881 442.987122,581.180237 439.538544,588.836487 
	C437.751923,592.803040 435.611145,596.612427 433.888580,600.604248 
	C433.210236,602.176270 432.982239,604.051514 432.978546,605.789551 
	C432.919098,633.788208 432.929016,661.787109 432.427307,690.276001 
	C417.675568,690.766052 403.419739,690.766052 388.783905,690.766052 
	C388.783905,688.267212 388.786224,686.296509 388.783600,684.325806 
	C388.730316,644.231201 388.676453,604.136536 388.747742,563.585327 
	C388.883514,551.810791 388.897186,540.492737 388.904510,529.174744 
	C388.930511,489.052521 388.954315,448.930298 389.441711,408.717102 
	C401.213104,408.543152 412.521790,408.460205 424.257233,408.550659 
	C427.402100,408.835968 430.120148,408.947845 432.838196,409.059723 
z"/>
<path fill="#F5F3F3" opacity="1.000000" stroke="none" 
	d="
M655.874634,565.065918 
	C656.622375,567.876038 657.297974,570.707703 658.130432,573.492493 
	C661.706970,585.456482 665.289612,597.419067 668.950012,609.357605 
	C671.223755,616.773438 673.728943,624.118713 675.972412,631.543396 
	C679.041321,641.700134 681.956421,651.903442 684.945740,662.084351 
	C685.930298,665.437317 686.940491,668.782776 688.022705,672.921509 
	C689.656616,679.269104 692.926636,684.537354 691.297607,690.789307 
	C676.416199,690.789307 661.867859,690.789307 647.547791,690.789307 
	C646.030762,687.360046 644.598572,684.122620 643.166443,680.885193 
	C639.081177,667.041199 634.931885,653.215637 630.927979,639.348145 
	C626.568115,624.247375 622.433960,609.081055 618.025879,593.994629 
	C615.308228,584.693542 612.262756,575.488281 609.135864,565.510559 
	C603.731995,576.933411 598.504395,587.983765 592.729492,599.630981 
	C592.083557,601.381165 591.898926,602.534546 591.898804,603.687927 
	C591.896362,632.795593 591.913147,661.903259 591.926636,691.010925 
	C591.926636,691.010925 592.006470,691.006165 591.536743,690.932800 
	C576.762695,690.865601 562.458252,690.871765 548.061401,690.424683 
	C547.931763,689.473450 547.862183,688.975464 547.862122,688.477478 
	C547.857056,596.527161 547.855896,504.576813 547.867798,412.626495 
	C547.867920,411.511047 548.037231,410.395630 548.140320,409.123383 
	C562.705627,409.123383 576.953674,409.123383 591.684326,409.123383 
	C591.684326,411.186646 591.684265,412.976807 591.684326,414.766968 
	C591.685059,436.922180 591.657715,459.077423 591.699646,481.232544 
	C591.717896,490.882385 591.878540,500.531921 591.974548,510.181610 
	C591.974548,514.084351 591.974548,517.987061 591.974548,521.889771 
	C592.491394,522.051086 593.008301,522.212341 593.525146,522.373657 
	C598.720520,511.252136 603.915894,500.130615 609.301819,488.662292 
	C609.492371,488.315521 609.616638,488.057404 609.616638,488.057404 
	C609.616638,488.057404 609.817078,488.003021 610.204529,487.809509 
	C612.435303,482.964844 614.278625,478.313690 616.121948,473.662506 
	C616.121948,473.662506 616.407104,473.276611 616.691650,473.258240 
	C617.089905,473.189026 617.305054,473.125946 617.300598,473.089355 
	C617.274231,472.870483 617.197266,472.657745 617.137207,472.442963 
	C619.114929,468.018005 621.092590,463.593079 623.429199,458.750732 
	C629.298767,447.279083 634.890381,436.264069 640.276184,425.149323 
	C642.163818,421.253815 643.545837,417.113251 645.158691,413.084595 
	C645.158691,413.084595 645.070312,413.051483 645.428467,413.244598 
	C646.521240,411.925049 647.255798,410.412384 648.457153,408.844421 
	C663.061035,408.789124 677.198120,408.789124 692.060181,408.789124 
	C690.972473,411.142059 690.364624,412.458771 689.755188,413.774719 
	C686.797974,420.160034 683.840332,426.545135 680.882812,432.930298 
	C680.882812,432.930298 680.965820,432.992279 680.588501,432.887573 
	C677.513245,438.201294 674.815247,443.619751 671.895630,449.298523 
	C668.873230,454.966827 665.971985,460.325745 663.302551,465.797760 
	C661.032593,470.450958 659.029785,475.234467 656.908752,479.960327 
	C656.908752,479.960327 656.981750,479.991760 656.603882,479.954376 
	C655.446167,481.926849 654.666260,483.936707 653.886353,485.946594 
	C653.886414,485.946594 653.965942,485.983795 653.595093,485.883606 
	C651.501587,489.221954 649.778809,492.660461 648.056091,496.098999 
	C646.332703,499.848022 645.105835,503.944550 642.778198,507.270782 
	C638.474854,513.420654 642.365601,518.740051 643.696655,524.321289 
	C644.992615,529.754944 646.581848,535.118713 648.376099,541.165283 
	C649.452454,543.569946 650.194946,545.322449 650.937439,547.074951 
	C650.937439,547.074951 650.979858,547.007446 650.774170,547.409424 
	C652.337158,553.562927 654.105896,559.314453 655.874634,565.065918 
z"/>
<path fill="#FF4646" opacity="1.000000" stroke="none" 
	d="
M592.322388,509.909027 
	C591.878540,500.531921 591.717896,490.882385 591.699646,481.232544 
	C591.657715,459.077423 591.685059,436.922180 591.684326,414.766968 
	C591.684265,412.976807 591.684326,411.186646 591.684326,409.123383 
	C576.953674,409.123383 562.705627,409.123383 548.140320,409.123383 
	C548.037231,410.395630 547.867920,411.511047 547.867798,412.626495 
	C547.855896,504.576813 547.857056,596.527161 547.862122,688.477478 
	C547.862183,688.975464 547.931763,689.473450 547.819458,690.499329 
	C547.501953,691.040588 547.333740,691.054016 547.165527,691.067444 
	C547.081848,682.671204 546.994873,674.274963 546.918274,665.878662 
	C546.907654,664.713867 546.963135,663.548462 546.963196,662.383362 
	C546.967224,586.127991 546.993347,509.872559 546.927063,433.617218 
	C546.921326,427.026398 546.160461,420.439270 546.013306,413.844543 
	C545.885681,408.126556 548.026733,406.083313 553.565735,406.077637 
	C565.220520,406.065704 576.875549,406.115326 588.529907,406.043579 
	C591.218872,406.027039 592.979004,406.417908 592.963867,409.765930 
	C592.813416,443.055847 592.754761,476.346222 592.322388,509.909027 
z"/>
<path fill="#FE4343" opacity="1.000000" stroke="none" 
	d="
M200.889175,429.158142 
	C187.385818,413.322571 169.124725,408.976990 149.231155,408.878387 
	C128.148224,408.773834 107.064445,408.829193 85.981087,408.856323 
	C84.356918,408.858398 82.733170,409.189636 80.631935,409.763306 
	C80.154648,410.158752 79.763390,410.048004 79.763390,410.048004 
	C80.869431,407.228210 82.767418,405.995880 85.959381,406.009796 
	C109.762596,406.113434 133.566940,405.995697 157.369537,406.154755 
	C160.372772,406.174774 163.362976,407.423737 166.367676,408.063568 
	C178.839905,410.719513 190.732498,414.531830 199.225616,424.899048 
	C200.084106,425.947021 200.379578,427.456238 200.889175,429.158142 
z"/>
<path fill="#FE2A2A" opacity="1.000000" stroke="none" 
	d="
M388.622681,564.041931 
	C388.676453,604.136536 388.730316,644.231201 388.783600,684.325806 
	C388.786224,686.296509 388.783905,688.267212 388.783905,690.766052 
	C403.419739,690.766052 417.675568,690.766052 432.389099,690.723083 
	C431.467010,691.445068 430.096497,692.854126 428.706055,692.874084 
	C416.550568,693.048584 404.391449,692.995850 392.233582,692.958496 
	C389.519043,692.950195 386.972717,692.867065 386.984436,688.883118 
	C387.106689,647.416870 387.135864,605.950317 387.718201,564.253357 
	C388.245544,564.022827 388.622681,564.041931 388.622681,564.041931 
z"/>
<path fill="#FE2524" opacity="1.000000" stroke="none" 
	d="
M366.446625,629.866943 
	C366.090698,595.628967 366.107605,561.195068 366.078979,526.761108 
	C366.062683,507.129333 365.972076,487.497650 366.003113,467.400024 
	C366.721680,468.491760 367.900116,470.048370 367.903046,471.607208 
	C367.999115,522.931641 367.991608,574.256287 367.932953,625.580872 
	C367.931396,626.944641 367.194397,628.307678 366.446625,629.866943 
z"/>
<path fill="#FE1414" opacity="1.000000" stroke="none" 
	d="
M344.960144,417.734802 
	C344.224854,417.887482 343.387909,417.840576 342.795471,417.435822 
	C318.990662,401.172272 293.540894,401.440216 267.459381,410.326599 
	C258.628906,413.335297 251.727615,419.525848 245.411591,426.395233 
	C248.190460,418.251984 255.018692,414.088623 261.804932,410.141815 
	C278.410645,400.484100 296.879730,402.294769 314.730133,403.400391 
	C324.914978,404.031189 334.965912,408.337799 343.394623,414.976685 
	C344.106720,415.537567 344.455139,416.560211 344.960144,417.734802 
z"/>
<path fill="#FE3F3F" opacity="1.000000" stroke="none" 
	d="
M388.747742,563.585327 
	C388.622681,564.041931 388.245544,564.022827 388.059204,563.992188 
	C387.905884,549.658875 388.046021,535.355408 387.951019,521.053528 
	C387.709412,484.682556 387.350739,448.312347 387.106506,411.941345 
	C387.097778,410.647003 387.804840,409.347870 388.638794,408.183838 
	C389.059174,408.480469 389.019073,408.644257 388.978973,408.808075 
	C388.954315,448.930298 388.930511,489.052521 388.904510,529.174744 
	C388.897186,540.492737 388.883514,551.810791 388.747742,563.585327 
z"/>
<path fill="#FE4343" opacity="1.000000" stroke="none" 
	d="
M80.460083,440.878693 
	C80.589561,443.024445 80.831383,445.170166 80.832291,447.315979 
	C80.865776,526.202881 80.876137,605.089844 80.895744,683.976746 
	C80.896240,685.972595 80.965164,687.968384 80.837601,690.485718 
	C80.503510,691.016235 80.334000,691.025146 80.164482,691.034119 
	C80.079346,684.667786 79.990105,678.301514 79.913322,671.935059 
	C79.901291,670.937744 79.961998,669.939819 79.961884,668.942139 
	C79.953217,593.246887 79.941826,517.551697 80.010162,441.340973 
	C80.089676,440.825500 80.460075,440.878693 80.460083,440.878693 
z"/>
<path fill="#FF0202" opacity="1.000000" stroke="none" 
	d="
M80.124657,691.460938 
	C80.334000,691.025146 80.503510,691.016235 80.918716,690.940430 
	C95.485580,690.873535 109.806755,690.873535 124.752983,690.873535 
	C124.752983,650.550049 124.752983,610.360840 124.752983,570.371643 
	C132.981766,570.371643 140.582413,570.371643 148.455658,570.657837 
	C141.410568,570.944031 134.092865,570.944031 126.000000,570.944031 
	C126.000000,572.915100 126.000000,574.660034 126.000000,576.404907 
	C125.999977,613.363403 125.958862,650.321960 126.066124,687.280151 
	C126.076385,690.816467 125.467087,693.025940 121.418411,693.012146 
	C108.266716,692.967346 95.114716,693.006165 81.963181,692.941711 
	C81.335365,692.938660 80.710876,692.254639 80.124657,691.460938 
z"/>
<path fill="#FE1E1E" opacity="1.000000" stroke="none" 
	d="
M681.264465,432.943176 
	C683.840332,426.545135 686.797974,420.160034 689.755188,413.774719 
	C690.364624,412.458771 690.972473,411.142059 692.060181,408.789124 
	C677.198120,408.789124 663.061035,408.789124 648.444458,408.660217 
	C647.964966,408.531281 647.944519,408.162537 647.944519,408.162537 
	C649.857056,407.445679 651.760193,406.139130 653.683777,406.108368 
	C665.628845,405.917175 677.578552,405.979950 689.526489,406.029022 
	C693.933716,406.047119 695.435181,408.087524 693.418091,411.961182 
	C689.714355,419.074158 685.593262,425.969818 681.264465,432.943176 
z"/>
<path fill="#FF1010" opacity="1.000000" stroke="none" 
	d="
M266.022156,689.315674 
	C273.372070,690.600403 280.655243,692.802490 288.100677,693.839172 
	C308.319611,696.654236 327.269684,693.172058 344.491180,680.969849 
	C342.027618,683.334106 339.544769,686.355652 336.356689,688.050659 
	C326.217163,693.441284 315.402405,696.499817 303.731964,696.038696 
	C297.726227,695.801453 291.502136,696.955078 285.741089,695.745178 
	C279.083069,694.346863 271.552948,695.014648 266.022156,689.315674 
z"/>
<path fill="#FF0202" opacity="1.000000" stroke="none" 
	d="
M529.007874,418.895325 
	C530.052185,415.697449 531.485229,412.560333 533.304504,408.577942 
	C518.846802,408.577942 504.957153,408.577942 490.621216,408.366760 
	C490.174927,408.155579 490.023254,407.798706 490.023254,407.798706 
	C491.980347,407.199127 493.930298,406.109650 495.895752,406.080872 
	C507.223083,405.915009 518.554565,405.948151 529.883484,406.048126 
	C531.908386,406.065979 533.927673,406.712280 537.272034,407.301361 
	C534.256714,411.763702 531.826660,415.359924 529.007874,418.895325 
z"/>
<path fill="#FF0202" opacity="1.000000" stroke="none" 
	d="
M643.097656,681.312012 
	C644.598572,684.122620 646.030762,687.360046 647.547791,690.789307 
	C661.867859,690.789307 676.416199,690.789307 691.297607,690.789307 
	C692.926636,684.537354 689.656616,679.269104 688.109863,673.333008 
	C692.730225,674.621094 692.548218,679.502258 692.704712,682.543396 
	C693.356079,695.201660 694.105164,692.862488 683.367371,692.977600 
	C673.546509,693.083008 663.723511,693.000122 653.901489,693.000000 
	C644.580566,692.999878 642.999329,691.362000 643.097656,681.312012 
z"/>
<path fill="#FF0202" opacity="1.000000" stroke="none" 
	d="
M212.865891,670.056030 
	C212.700104,663.621948 212.422150,657.188416 212.390976,650.753662 
	C212.317215,635.526978 212.360718,620.299683 212.583725,604.617554 
	C212.810638,604.162537 213.183075,604.009094 213.183075,604.009094 
	C213.455383,605.394409 213.961929,606.779175 213.964798,608.165039 
	C214.006744,628.473083 213.981537,648.781372 213.660416,669.553162 
	C213.348526,670.016785 212.865891,670.056030 212.865891,670.056030 
z"/>
<path fill="#FF0202" opacity="1.000000" stroke="none" 
	d="
M389.441711,408.717102 
	C389.019073,408.644257 389.059174,408.480469 389.055023,408.067322 
	C389.572021,407.239838 390.137970,406.153625 390.693787,406.158783 
	C401.511871,406.259460 412.328796,406.487518 423.486511,407.129852 
	C423.732422,407.839630 423.733551,408.108643 423.830444,408.377258 
	C412.521790,408.460205 401.213104,408.543152 389.441711,408.717102 
z"/>
<path fill="#FE1414" opacity="1.000000" stroke="none" 
	d="
M644.766357,413.063080 
	C643.545837,417.113251 642.163818,421.253815 640.276184,425.149323 
	C634.890381,436.264069 629.298767,447.279083 623.510498,458.341919 
	C627.831848,447.981537 632.341736,437.571655 637.069092,427.261505 
	C639.287903,422.422424 641.925903,417.775543 644.766357,413.063080 
z"/>
<path fill="#FF0202" opacity="1.000000" stroke="none" 
	d="
M170.097351,688.275513 
	C171.845566,690.322510 174.060257,691.055847 177.123596,691.005005 
	C190.055634,690.789917 202.993118,690.902405 216.386932,690.879028 
	C215.032166,691.575256 213.227890,692.877258 211.404526,692.904602 
	C199.184052,693.087830 186.958878,692.931946 174.736710,693.045837 
	C171.549164,693.075500 169.495605,692.435364 170.097351,688.275513 
z"/>
<path fill="#FF0202" opacity="1.000000" stroke="none" 
	d="
M487.217041,691.282227 
	C502.416748,690.888367 517.668396,690.902771 533.377930,690.916199 
	C532.895203,691.607788 531.960205,692.894714 531.013306,692.903503 
	C517.267334,693.031982 503.519623,693.011841 489.772888,692.931885 
	C488.935852,692.927002 488.103485,692.122803 487.217041,691.282227 
z"/>
<path fill="#FF0202" opacity="1.000000" stroke="none" 
	d="
M592.322876,690.822388 
	C591.913147,661.903259 591.896362,632.795593 591.898804,603.687927 
	C591.898926,602.534546 592.083557,601.381165 592.510559,599.913940 
	C592.798950,629.944641 592.759033,660.289246 592.322876,690.822388 
z"/>
<path fill="#FF5252" opacity="1.000000" stroke="none" 
	d="
M231.052185,538.437317 
	C231.401642,538.650269 231.986145,539.331665 231.985992,540.013000 
	C231.978867,569.199890 231.919785,598.386841 231.517166,627.831665 
	C231.116379,598.361633 231.065475,568.633728 231.052185,538.437317 
z"/>
<path fill="#FF0202" opacity="1.000000" stroke="none" 
	d="
M167.881180,631.017761 
	C167.983871,645.729919 168.086563,660.442017 168.046539,675.608215 
	C167.269623,674.462585 166.096756,672.866577 166.086105,671.262756 
	C165.997925,657.994934 166.124878,644.725769 166.785278,631.227783 
	C167.383865,630.998535 167.881180,631.017761 167.881180,631.017761 
z"/>
<path fill="#FF0202" opacity="1.000000" stroke="none" 
	d="
M547.272217,691.449097 
	C547.333740,691.054016 547.501953,691.040588 547.911987,690.952576 
	C562.458252,690.871765 576.762695,690.865601 591.535400,690.892822 
	C590.860596,691.616699 589.723877,692.895081 588.573242,692.907654 
	C575.695984,693.048767 562.816467,693.016907 549.938110,692.943481 
	C549.082947,692.938660 548.231934,692.218323 547.272217,691.449097 
z"/>
<path fill="#FE2524" opacity="1.000000" stroke="none" 
	d="
M209.238831,516.108032 
	C212.393036,502.323425 211.725098,488.028229 212.143173,473.387024 
	C212.443802,472.986694 212.837845,472.981537 212.837845,472.981537 
	C212.885010,483.446472 213.236908,493.923584 212.820969,504.370056 
	C212.666687,508.245300 210.711151,512.048828 209.238831,516.108032 
z"/>
<path fill="#FF0202" opacity="1.000000" stroke="none" 
	d="
M80.524269,440.422302 
	C80.460075,440.878693 80.089676,440.825500 79.909454,440.877563 
	C79.289436,433.653595 78.736450,426.381775 78.465919,419.099426 
	C78.358643,416.211761 78.878372,413.300812 79.438004,410.224243 
	C79.763390,410.048004 80.154648,410.158752 80.356895,410.138000 
	C80.568916,420.066803 80.578690,430.016357 80.524269,440.422302 
z"/>
<path fill="#FE1414" opacity="1.000000" stroke="none" 
	d="
M657.291748,479.963318 
	C659.029785,475.234467 661.032593,470.450958 663.302551,465.797760 
	C665.971985,460.325745 668.873230,454.966827 672.144836,449.299011 
	C672.615723,449.039124 673.114258,449.041992 673.114258,449.041992 
	C671.751282,452.311890 670.596069,455.688507 668.982971,458.829987 
	C665.333496,465.937042 661.458191,472.928070 657.291748,479.963318 
z"/>
<path fill="#FE1E1E" opacity="1.000000" stroke="none" 
	d="
M365.932251,462.931610 
	C363.005524,453.771851 360.156647,444.215759 357.471039,434.308167 
	C357.634308,433.956604 358.112061,433.953461 358.112061,433.953461 
	C359.721405,436.682739 361.520630,439.319733 362.901520,442.160034 
	C366.032440,448.599762 366.378723,455.527771 365.932251,462.931610 
z"/>
<path fill="#FE1E1E" opacity="1.000000" stroke="none" 
	d="
M357.448120,665.050232 
	C361.679718,656.021545 364.577637,646.442993 365.658966,636.035339 
	C367.352295,646.135803 363.290283,655.281738 359.602905,664.491821 
	C359.462891,664.841553 358.446350,664.840393 357.448120,665.050232 
z"/>
<path fill="#FF5252" opacity="1.000000" stroke="none" 
	d="
M231.109985,472.366638 
	C231.470734,472.598053 232.036316,473.302216 232.035156,474.005493 
	C232.005127,492.287903 231.916199,510.570160 231.538361,529.203003 
	C231.176437,510.648682 231.113586,491.743805 231.109985,472.366638 
z"/>
<path fill="#FE1414" opacity="1.000000" stroke="none" 
	d="
M244.789673,426.064026 
	C244.329025,427.867950 243.444122,429.627594 242.654755,431.429077 
	C239.966644,437.563751 237.312195,443.713226 234.275848,449.927368 
	C234.762924,440.852112 237.891479,432.702667 244.789673,426.064026 
z"/>
<path fill="#FF5252" opacity="1.000000" stroke="none" 
	d="
M213.113708,603.543335 
	C213.183075,604.009094 212.810638,604.162537 212.609253,604.160095 
	C211.046249,594.382324 209.684601,584.606995 208.318771,574.456726 
	C212.103241,577.896851 212.039795,583.105164 212.741699,587.817322 
	C213.485168,592.808350 212.995453,597.983093 213.113708,603.543335 
z"/>
<path fill="#FF1010" opacity="1.000000" stroke="none" 
	d="
M212.904266,472.519318 
	C212.837845,472.981537 212.443802,472.986694 212.247192,472.999664 
	C210.729095,463.919159 209.407593,454.825714 208.089539,445.334351 
	C209.055008,445.834717 210.756332,446.653687 210.862488,447.643677 
	C211.733109,455.763458 212.306824,463.915131 212.904266,472.519318 
z"/>
<path fill="#FE1E1E" opacity="1.000000" stroke="none" 
	d="
M167.988922,630.558716 
	C167.881180,631.017761 167.383865,630.998535 167.136078,630.976196 
	C166.919189,620.463684 167.004562,609.973145 166.934769,599.483582 
	C166.920914,597.400024 166.312378,595.320496 166.057983,592.866760 
	C166.794769,595.735779 167.928787,598.963989 168.017868,602.220886 
	C168.271896,611.507568 168.100632,620.805908 167.988922,630.558716 
z"/>
<path fill="#FE1414" opacity="1.000000" stroke="none" 
	d="
M358.062561,433.577789 
	C358.112061,433.953461 357.634308,433.956604 357.395447,433.958313 
	C353.005829,428.888275 348.855103,423.816498 344.803558,418.400085 
	C351.298340,421.351105 355.525391,426.523834 358.062561,433.577789 
z"/>
<path fill="#FE1E1E" opacity="1.000000" stroke="none" 
	d="
M673.480957,449.003296 
	C673.114258,449.041992 672.615723,449.039124 672.366455,449.038635 
	C674.815247,443.619751 677.513245,438.201294 680.565796,432.840942 
	C678.562927,438.254242 676.205322,443.609406 673.480957,449.003296 
z"/>
<path fill="#FF1010" opacity="1.000000" stroke="none" 
	d="
M473.891754,438.720551 
	C471.706543,444.336090 469.173492,450.149750 466.277771,455.980713 
	C468.458008,450.304901 471.000977,444.611786 473.891754,438.720551 
z"/>
<path fill="#FE1E1E" opacity="1.000000" stroke="none" 
	d="
M253.042618,681.279907 
	C257.340637,683.370483 261.629547,685.826904 265.992401,688.624634 
	C260.703766,688.338806 255.865952,686.777527 253.042618,681.279907 
z"/>
<path fill="#FE1E1E" opacity="1.000000" stroke="none" 
	d="
M234.094467,649.140991 
	C236.304520,653.917358 238.442184,659.130676 240.453796,664.696777 
	C240.327728,665.049561 239.901886,665.064575 239.901886,665.064575 
	C235.848953,660.697021 234.368042,655.352905 234.094467,649.140991 
z"/>
<path fill="#FE1E1E" opacity="1.000000" stroke="none" 
	d="
M655.948853,564.719116 
	C654.105896,559.314453 652.337158,553.562927 650.735596,547.419678 
	C652.609558,552.809387 654.316345,558.590820 655.948853,564.719116 
z"/>
<path fill="#FE1414" opacity="1.000000" stroke="none" 
	d="
M212.775604,670.494141 
	C212.865891,670.056030 213.348526,670.016785 213.590637,670.018433 
	C214.882263,676.045471 215.931763,682.070923 216.906479,688.518127 
	C215.449570,682.937378 214.067459,676.934814 212.775604,670.494141 
z"/>
<path fill="#FE1414" opacity="1.000000" stroke="none" 
	d="
M615.841431,473.831116 
	C614.278625,478.313690 612.435303,482.964844 610.279297,487.737518 
	C611.831421,483.239258 613.696167,478.619507 615.841431,473.831116 
z"/>
<path fill="#FE1E1E" opacity="1.000000" stroke="none" 
	d="
M479.761414,426.114563 
	C478.387665,430.190552 476.655212,434.334625 474.563568,438.587097 
	C475.937164,434.524567 477.669952,430.353607 479.761414,426.114563 
z"/>
<path fill="#FE1414" opacity="1.000000" stroke="none" 
	d="
M648.416870,496.046631 
	C649.778809,492.660461 651.501587,489.221954 653.578491,485.842957 
	C653.815125,490.084137 652.233459,493.517853 648.416870,496.046631 
z"/>
<path fill="#FF1010" opacity="1.000000" stroke="none" 
	d="
M245.048279,673.237183 
	C247.771561,675.335632 250.474686,677.797974 253.130646,680.607910 
	C248.771408,680.286072 247.293396,676.512512 245.048279,673.237183 
z"/>
<path fill="#FE1E1E" opacity="1.000000" stroke="none" 
	d="
M485.349396,416.401245 
	C483.831238,419.672150 482.313049,422.943085 480.436340,426.156494 
	C481.537628,422.430389 482.997375,418.761810 484.821899,415.336548 
	C485.240906,415.853638 485.295166,416.127441 485.349396,416.401245 
z"/>
<path fill="#FF5252" opacity="1.000000" stroke="none" 
	d="
M485.611877,416.170593 
	C485.295166,416.127441 485.240906,415.853638 485.150909,415.159973 
	C485.005127,411.563812 485.787842,408.938354 489.652863,407.892456 
	C490.023254,407.798706 490.174927,408.155579 490.163147,408.349060 
	C488.725708,411.008331 487.300049,413.474121 485.611877,416.170593 
z"/>
<path fill="#FF1010" opacity="1.000000" stroke="none" 
	d="
M239.944824,665.436523 
	C239.901886,665.064575 240.327728,665.049561 240.540283,665.034912 
	C242.358475,667.445618 243.964081,669.870911 245.351608,672.616821 
	C243.418274,670.561096 241.703018,668.184753 239.944824,665.436523 
z"/>
<path fill="#FE3F3F" opacity="1.000000" stroke="none" 
	d="
M424.257233,408.550659 
	C423.733551,408.108643 423.732422,407.839630 423.834869,407.366089 
	C426.809540,407.528809 429.776428,407.895630 432.790771,408.661072 
	C430.120148,408.947845 427.402100,408.835968 424.257233,408.550659 
z"/>
<path fill="#FE1414" opacity="1.000000" stroke="none" 
	d="
M518.282043,440.958099 
	C518.712341,438.800964 519.532654,436.649506 520.656250,434.365417 
	C520.197021,436.476440 519.434570,438.720093 518.282043,440.958099 
z"/>
<path fill="#FE1E1E" opacity="1.000000" stroke="none" 
	d="
M650.962891,546.685181 
	C650.194946,545.322449 649.452454,543.569946 648.682495,541.489380 
	C649.432739,542.872803 650.210571,544.584106 650.962891,546.685181 
z"/>
<path fill="#FE1414" opacity="1.000000" stroke="none" 
	d="
M654.278259,485.954590 
	C654.666260,483.936707 655.446167,481.926849 656.587036,479.918396 
	C656.188721,481.934082 655.429443,483.948334 654.278259,485.954590 
z"/>
<path fill="#FE1414" opacity="1.000000" stroke="none" 
	d="
M515.228455,446.891754 
	C515.644958,444.917908 516.423767,442.880066 517.570190,440.876373 
	C517.155518,442.882965 516.373108,444.855347 515.228455,446.891754 
z"/>
<path fill="#FE1414" opacity="1.000000" stroke="none" 
	d="
M647.575073,408.109070 
	C647.944519,408.162537 647.964966,408.531281 647.977661,408.715515 
	C647.255798,410.412384 646.521240,411.925049 645.443115,413.289459 
	C645.801636,411.446014 646.503601,409.750824 647.575073,408.109070 
z"/>
<path fill="#FE1414" opacity="1.000000" stroke="none" 
	d="
M512.418823,451.051331 
	C512.775879,449.619080 513.503296,448.128784 514.577026,446.760864 
	C514.211975,448.253235 513.500549,449.623291 512.418823,451.051331 
z"/>
<path fill="#FF5252" opacity="1.000000" stroke="none" 
	d="
M231.141388,531.938110 
	C231.439545,532.956360 231.632324,534.482544 231.532471,536.291504 
	C231.171875,535.198181 231.103943,533.822083 231.141388,531.938110 
z"/>
<path fill="#FF1010" opacity="1.000000" stroke="none" 
	d="
M465.768860,456.008636 
	C465.619110,456.760986 465.187805,457.568878 464.483398,458.384399 
	C464.635956,457.616119 465.061615,456.840149 465.768860,456.008636 
z"/>
<path fill="#FE1414" opacity="1.000000" stroke="none" 
	d="
M617.041138,472.504822 
	C617.197266,472.657745 617.274231,472.870483 617.300598,473.089355 
	C617.305054,473.125946 617.089905,473.189026 616.883728,473.114471 
	C616.791199,472.989044 616.944946,472.566711 617.041138,472.504822 
z"/>
<path fill="#FE1414" opacity="1.000000" stroke="none" 
	d="
M233.872147,449.925354 
	C234.007950,450.214630 233.855698,450.352173 233.417313,450.331360 
	C233.327347,450.089325 233.478317,449.956207 233.872147,449.925354 
z"/>
<path fill="#FE1414" opacity="1.000000" stroke="none" 
	d="
M609.550598,488.030212 
	C609.616638,488.057404 609.492371,488.315521 609.416870,488.258972 
	C609.341370,488.202393 609.484558,488.002991 609.550598,488.030212 
z"/>
<path fill="#FF5252" opacity="1.000000" stroke="none" 
	d="
M231.003036,529.781372 
	C231.414902,529.887695 231.556732,530.193115 231.486267,530.958252 
	C231.093643,530.938782 230.913330,530.459595 231.003036,529.781372 
z"/>
<path fill="#FF5252" opacity="1.000000" stroke="none" 
	d="
M231.036926,536.737366 
	C231.397171,536.816711 231.522202,537.054382 231.401810,537.611816 
	C231.038162,537.586243 230.919937,537.240967 231.036926,536.737366 
z"/>
<path fill="#000000" opacity="1.000000" stroke="none" 
	d="
M126.029900,449.131714 
	C133.018585,449.078094 140.011658,448.844147 146.994919,449.013458 
	C157.283829,449.262878 166.361252,459.144257 166.240692,469.393494 
	C166.105515,480.886749 166.550079,492.400085 166.001541,503.869263 
	C165.755112,509.021759 163.708282,514.088135 161.910797,519.586426 
	C160.913040,520.686890 160.482880,521.394531 160.052719,522.102173 
	C160.052719,522.102173 160.026154,522.027893 159.769897,522.061157 
	C159.356537,522.430420 159.199402,522.766418 159.042282,523.102417 
	C159.042282,523.102417 159.022797,523.025391 158.711487,523.023193 
	C157.612442,523.724060 156.824722,524.427124 156.036987,525.130188 
	C156.036987,525.130188 156.023041,525.051880 155.646973,525.033081 
	C145.840637,528.312927 136.163116,528.620361 126.029900,527.679138 
	C126.029900,501.314148 126.029900,475.222931 126.029900,449.131714 
z"/>
<path fill="#FF0202" opacity="1.000000" stroke="none" 
	d="
M125.602219,449.237061 
	C126.029900,475.222931 126.029900,501.314148 126.029900,527.679138 
	C136.163116,528.620361 145.840637,528.312927 155.685944,525.041016 
	C152.418930,526.411255 148.815796,528.544006 145.037216,528.921692 
	C138.622650,529.562988 132.097473,529.098083 125.741997,529.098083 
	C125.412933,528.687134 125.032608,528.433838 125.032883,528.180969 
	C125.061569,501.901459 125.118904,475.621918 125.602219,449.237061 
z"/>
<path fill="#FF0202" opacity="1.000000" stroke="none" 
	d="
M156.362854,525.346863 
	C156.824722,524.427124 157.612442,523.724060 158.748566,523.037476 
	C158.294205,523.890503 157.491470,524.727051 156.362854,525.346863 
z"/>
<path fill="#FF0202" opacity="1.000000" stroke="none" 
	d="
M160.421875,522.194275 
	C160.482880,521.394531 160.913040,520.686890 161.696564,519.872192 
	C161.630295,520.605530 161.210663,521.445984 160.421875,522.194275 
z"/>
<path fill="#FF0202" opacity="1.000000" stroke="none" 
	d="
M159.399811,523.189087 
	C159.199402,522.766418 159.356537,522.430420 159.808609,522.068848 
	C159.988159,522.454102 159.872742,522.864929 159.399811,523.189087 
z"/>
<path fill="#000000" opacity="1.000000" stroke="none" 
	d="
M296.084473,654.098267 
	C286.573090,653.369324 278.328156,645.339661 276.936829,633.836304 
	C276.983765,579.030334 276.998108,525.085938 276.964996,471.141541 
	C276.964172,469.760376 276.442688,468.379578 276.164032,466.998596 
	C277.252747,463.659821 278.234406,460.281403 279.451813,456.990234 
	C282.246796,449.434570 287.738861,445.585449 295.802063,446.054169 
	C300.459717,446.324982 305.171936,446.861511 309.695435,447.956696 
	C316.695496,449.651428 318.940979,456.015930 319.880402,461.767120 
	C321.404266,471.095978 321.874329,480.676575 321.914520,490.154633 
	C322.105225,535.131897 322.177216,580.111816 321.798859,625.086670 
	C321.745239,631.456726 318.985992,637.804016 316.917725,644.574280 
	C315.934723,645.705017 315.513092,646.423218 315.091492,647.141479 
	C315.091492,647.141479 315.035828,647.054688 314.783264,647.082581 
	C314.391907,647.454956 314.253174,647.799377 314.114441,648.143860 
	C314.114441,648.143860 314.097046,648.035034 313.764008,648.041077 
	C312.973633,648.731323 312.516327,649.415588 312.058990,650.099792 
	C312.058990,650.099792 312.004974,650.023193 311.641998,650.023193 
	C306.214172,651.381592 301.149323,652.739929 296.084473,654.098267 
z"/>
<path fill="#FF0202" opacity="1.000000" stroke="none" 
	d="
M276.088867,467.461853 
	C276.442688,468.379578 276.964172,469.760376 276.964996,471.141541 
	C276.998108,525.085938 276.983765,579.030334 276.906006,633.427368 
	C276.554688,631.458191 276.029053,629.036682 276.027222,626.614807 
	C275.987610,573.718262 276.006226,520.821655 276.088867,467.461853 
z"/>
<path fill="#FE1E1E" opacity="1.000000" stroke="none" 
	d="
M296.330200,654.207520 
	C301.149323,652.739929 306.214172,651.381592 311.683899,650.044189 
	C307.908142,655.095703 302.051666,654.011658 296.330200,654.207520 
z"/>
<path fill="#FE1E1E" opacity="1.000000" stroke="none" 
	d="
M315.456970,647.335083 
	C315.513092,646.423218 315.934723,645.705017 316.707977,644.868164 
	C316.647217,645.675903 316.234802,646.602295 315.456970,647.335083 
z"/>
<path fill="#FE1E1E" opacity="1.000000" stroke="none" 
	d="
M312.439331,650.224548 
	C312.516327,649.415588 312.973633,648.731323 313.803284,648.079712 
	C313.723602,648.858032 313.271606,649.603699 312.439331,650.224548 
z"/>
<path fill="#FE1E1E" opacity="1.000000" stroke="none" 
	d="
M314.491241,648.276489 
	C314.253174,647.799377 314.391907,647.454956 314.831970,647.099487 
	C315.044861,647.528687 314.956451,647.968933 314.491241,648.276489 
z"/>
</svg>