<svg width="35" height="35" viewBox="0 0 35 35" fill="none" xmlns="http://www.w3.org/2000/svg">
<path d="M33.5417 14.5833C33.9284 14.5833 34.2994 14.4297 34.5729 14.1562C34.8464 13.8827 35 13.5118 35 13.125V7.29167C35 6.90489 34.8464 6.53396 34.5729 6.26047C34.2994 5.98698 33.9284 5.83333 33.5417 5.83333H27.7083C27.3216 5.83333 26.9506 5.98698 26.6771 6.26047C26.4036 6.53396 26.25 6.90489 26.25 7.29167V7.74229L8.75 3.85292V1.45833C8.75 1.07156 8.59635 0.700627 8.32286 0.427136C8.04937 0.153645 7.67844 0 7.29167 0L1.45833 0C1.07156 0 0.700627 0.153645 0.427136 0.427136C0.153645 0.700627 0 1.07156 0 1.45833L0 7.29167C0 7.67844 0.153645 8.04937 0.427136 8.32286C0.700627 8.59635 1.07156 8.75 1.45833 8.75H2.91667V26.25H1.45833C1.07156 26.25 0.700627 26.4036 0.427136 26.6771C0.153645 26.9506 0 27.3216 0 27.7083L0 33.5417C0 33.9284 0.153645 34.2994 0.427136 34.5729C0.700627 34.8464 1.07156 35 1.45833 35H7.29167C7.67844 35 8.04937 34.8464 8.32286 34.5729C8.59635 34.2994 8.75 33.9284 8.75 33.5417V31.1471L26.25 27.2577V27.7083C26.25 28.0951 26.4036 28.466 26.6771 28.7395C26.9506 29.013 27.3216 29.1667 27.7083 29.1667H33.5417C33.9284 29.1667 34.2994 29.013 34.5729 28.7395C34.8464 28.466 35 28.0951 35 27.7083V21.875C35 21.4882 34.8464 21.1173 34.5729 20.8438C34.2994 20.5703 33.9284 20.4167 33.5417 20.4167H32.0833V14.5833H33.5417ZM29.1667 20.4167H27.7083C27.3216 20.4167 26.9506 20.5703 26.6771 20.8438C26.4036 21.1173 26.25 21.4882 26.25 21.875V24.2696L8.75 28.159V27.7083C8.75 27.3216 8.59635 26.9506 8.32286 26.6771C8.04937 26.4036 7.67844 26.25 7.29167 26.25H5.83333V8.75H7.29167C7.67844 8.75 8.04937 8.59635 8.32286 8.32286C8.59635 8.04937 8.75 7.67844 8.75 7.29167V6.84104L26.25 10.7304V13.125C26.25 13.5118 26.4036 13.8827 26.6771 14.1562C26.9506 14.4297 27.3216 14.5833 27.7083 14.5833H29.1667V20.4167Z" fill="white"/>
</svg>
