<svg width="34" height="35" viewBox="0 0 34 35" fill="none" xmlns="http://www.w3.org/2000/svg">
<path d="M1.45837 16.3891C1.45837 20.2567 2.99483 23.9661 5.72973 26.7009C8.46464 29.4359 12.174 30.9724 16.0417 30.9724C19.9095 30.9724 23.6188 29.4359 26.3537 26.7009C29.0885 23.9661 30.625 20.2567 30.625 16.3891C30.625 12.5212 29.0885 8.81193 26.3537 6.07702C23.6188 3.34212 19.9095 1.80566 16.0417 1.80566C12.174 1.80566 8.46464 3.34212 5.72973 6.07702C2.99483 8.81193 1.45837 12.5212 1.45837 16.3891Z" stroke="white" stroke-width="3"/>
<path d="M26.25 26.5974L32.9331 33.2804" stroke="white" stroke-width="3"/>
<path d="M9.47925 13.125H22.6042V21.875H9.47925V13.125Z" stroke="white" stroke-width="3"/>
<path d="M18.9583 13.1249V10.9374C18.9583 9.32659 17.6525 8.02075 16.0417 8.02075C14.4308 8.02075 13.125 9.32659 13.125 10.9374V13.1249" stroke="white" stroke-width="3"/>
</svg>
