<svg width="35" height="33" viewBox="0 0 35 33" fill="none" xmlns="http://www.w3.org/2000/svg">
<path d="M18.639 11.6718C18.5024 11.501 18.3291 11.3631 18.1319 11.2683C17.9348 11.1735 17.7188 11.1243 17.5001 11.1243C17.2813 11.1243 17.0653 11.1735 16.8682 11.2683C16.671 11.3631 16.4977 11.501 16.3611 11.6718L10.5278 18.9635C10.3536 19.181 10.2454 19.4438 10.2159 19.7208C10.1865 19.9979 10.237 20.2776 10.3615 20.5268L13.6821 27.1666H21.318L24.6459 20.5268C24.7704 20.2776 24.8209 19.9979 24.7915 19.7208C24.762 19.4438 24.6538 19.181 24.4796 18.9635L18.639 11.6718Z" fill="white"/>
<path d="M32.0834 0.916753C31.5032 0.917638 30.9364 1.09156 30.4555 1.41629C29.9747 1.74101 29.6016 2.20178 29.384 2.73967H20.4167V2.37509C20.4167 1.98831 20.2631 1.61738 19.9896 1.34389C19.7161 1.0704 19.3452 0.916753 18.9584 0.916753H16.0417C15.6549 0.916753 15.284 1.0704 15.0105 1.34389C14.737 1.61738 14.5834 1.98831 14.5834 2.37509V2.73967H5.61609C5.36227 2.1122 4.89811 1.59254 4.30317 1.26976C3.70823 0.946977 3.01954 0.841166 2.35514 0.970458C1.69074 1.09975 1.09199 1.4561 0.661504 1.97843C0.23102 2.50076 -0.00439453 3.15655 -0.00439453 3.83342C-0.00439453 4.51028 0.23102 5.16608 0.661504 5.68841C1.09199 6.21074 1.69074 6.56709 2.35514 6.69638C3.01954 6.82567 3.70823 6.71986 4.30317 6.39708C4.89811 6.0743 5.36227 5.55464 5.61609 4.92717H9.95755C7.91676 6.20292 6.23352 7.9762 5.06574 10.0806C3.89797 12.1851 3.28395 14.5517 3.2813 16.9584H5.4688C5.47372 14.2778 6.37287 11.6754 8.02384 9.56349C9.6748 7.45158 11.9832 5.95086 14.5834 5.29904C14.5834 5.68582 14.737 6.05675 15.0105 6.33024C15.284 6.60373 15.6549 6.75738 16.0417 6.75738H18.9584C19.3452 6.75738 19.7161 6.60373 19.9896 6.33024C20.2631 6.05675 20.4167 5.68582 20.4167 5.29904C23.0184 5.95089 25.328 7.45257 26.9794 9.56599C28.6308 11.6794 29.5294 14.2836 29.5328 16.9657H31.7203C31.7176 14.559 31.1036 12.1924 29.9358 10.0879C28.768 7.98349 27.0848 6.21021 25.044 4.93446H29.3855C29.5852 5.42431 29.9143 5.85063 30.3377 6.16778C30.7611 6.48493 31.2627 6.68096 31.789 6.73489C32.3152 6.78882 32.8462 6.69861 33.3251 6.47394C33.804 6.24926 34.2128 5.89856 34.5077 5.4594C34.8026 5.02023 34.9725 4.50913 34.9993 3.98082C35.026 3.4525 34.9086 2.92686 34.6595 2.46017C34.4104 1.99348 34.0391 1.60331 33.5853 1.33144C33.1316 1.05956 32.6124 0.916219 32.0834 0.916753ZM13.1251 30.0834H21.8751V33.0001H13.1251V30.0834Z" fill="white"/>
</svg>
