<svg width="29" height="29" viewBox="0 0 29 29" fill="none" xmlns="http://www.w3.org/2000/svg">
<path d="M27.1667 0.375H21.3334C20.9466 0.375 20.5757 0.528645 20.3022 0.802136C20.0287 1.07563 19.875 1.44656 19.875 1.83333V14.006C19.9009 15.1878 19.5273 16.3437 18.8146 17.2867C18.1018 18.2297 17.0917 18.9046 15.9477 19.2021C15.1893 19.3877 14.3982 19.3958 13.6361 19.2258C12.874 19.0558 12.1614 18.7122 11.5537 18.2219C10.946 17.7316 10.4596 17.1077 10.1323 16.3988C9.805 15.6898 9.64568 14.9149 9.66671 14.1344V7.66667H14.0417V13.5L19.875 6.20833H15.5V0.375L9.66671 7.66667V1.83333C9.66671 1.44656 9.51306 1.07563 9.23957 0.802136C8.96608 0.528645 8.59515 0.375 8.20837 0.375H2.37504C1.98827 0.375 1.61733 0.528645 1.34384 0.802136C1.07035 1.07563 0.916706 1.44656 0.916706 1.83333V13.7917C0.865424 17.1317 1.99854 20.3821 4.11516 22.9664C6.23177 25.5507 9.19513 27.302 12.4798 27.9098C14.9567 28.3252 17.4999 28.0596 19.8374 27.1413C22.175 26.223 24.2189 24.6865 25.7507 22.6963C27.667 20.1448 28.6784 17.0274 28.625 13.8369V1.83333C28.625 1.44656 28.4714 1.07563 28.1979 0.802136C27.9244 0.528645 27.5535 0.375 27.1667 0.375ZM6.75004 7.66667H3.83337V3.29167H6.75004V7.66667ZM25.7084 7.66667H22.7917V3.29167H25.7084V7.66667Z" fill="white"/>
</svg>
