<svg width="206" height="9" viewBox="0 0 206 9" fill="none" xmlns="http://www.w3.org/2000/svg">
<path fill-rule="evenodd" clip-rule="evenodd" d="M105.785 4.81434C105.79 4.81041 105.795 4.80647 105.801 4.80255C106.251 4.468 106.647 4.23267 106.96 4.10152C107.116 4.03598 107.211 4.01336 107.255 4.0053C107.347 4.04091 107.559 4.1499 107.936 4.45574C108.239 4.70221 108.511 4.95585 108.835 5.25726L108.835 5.25732C109.022 5.43137 109.226 5.62134 109.463 5.83507C110.477 6.74912 112.347 8.37935 114.771 7.92019C116.543 7.58454 117.842 6.42037 118.677 5.67175C118.783 5.57672 118.881 5.48839 118.973 5.4093C119.908 4.597 120.509 4.22265 121.386 4.22265C122.081 4.22265 122.415 4.49233 123.332 5.46271L123.395 5.52964C124.268 6.4542 125.684 7.95514 128.236 7.95514C130.723 7.95514 132.158 6.59251 133.102 5.69626L133.166 5.6349C134.119 4.73084 134.635 4.28897 135.639 4.21762C136.527 4.15454 137.024 4.48314 137.788 5.26921C137.869 5.35196 137.964 5.45352 138.07 5.56651L138.071 5.56763C138.398 5.91656 138.827 6.37421 139.238 6.7243C139.853 7.24939 140.691 7.79001 141.812 7.93796C143.02 8.09725 144.069 7.68483 144.846 7.25766C145.569 6.85978 146.275 6.32082 146.855 5.87804L146.96 5.79803C147.615 5.29888 148.155 4.89615 148.687 4.60569C149.206 4.32251 149.584 4.22265 149.883 4.22265C150.227 4.22265 150.362 4.29857 150.47 4.37411C150.666 4.51106 150.832 4.69595 151.24 5.15159L151.313 5.23357C151.723 5.69096 152.302 6.31801 153.138 6.8479C153.997 7.3918 155.037 7.78094 156.356 7.94063C157.719 8.10571 158.88 7.92694 159.882 7.39964C160.836 6.89744 161.458 6.16864 161.872 5.66022L162.004 5.49785C162.772 4.55174 162.991 4.28318 163.76 4.21481C164.228 4.17329 164.464 4.26916 164.645 4.37961C164.904 4.53774 165.157 4.79144 165.608 5.29922C165.645 5.34081 165.683 5.38409 165.723 5.42881C166.554 6.37074 167.952 7.95514 170.571 7.95514C173.119 7.95514 174.673 6.61175 175.721 5.67615C176.851 4.66843 177.309 4.27793 178.064 4.21595C178.409 4.18766 178.511 4.21158 179.557 5.43554C179.992 5.94526 180.631 6.67661 181.526 7.21234C182.488 7.78871 183.638 8.08179 185.016 7.94542C187.655 7.68429 189.07 6.32346 190.026 5.34384C191.017 4.32907 191.176 4.22265 191.601 4.22265C191.984 4.22265 192.169 4.34933 193.222 5.46271C194.162 6.45751 195.647 7.95514 198.314 7.95514C200.337 7.95514 202.008 7.07359 203.206 6.12015C204.399 5.17016 205.27 4.03542 205.738 3.21167C206.285 2.25161 205.949 1.03053 204.989 0.484306C204.029 -0.0619136 202.808 0.273571 202.262 1.23363C202.022 1.65405 201.475 2.38555 200.715 2.99077C199.959 3.59253 199.142 3.95514 198.314 3.95514C197.419 3.95514 196.952 3.58653 196.129 2.71509C196.072 2.65563 196.012 2.59002 195.947 2.51959L195.944 2.51618C195.187 1.69422 193.832 0.222651 191.601 0.222651C189.392 0.222651 188.101 1.57143 187.336 2.37114L187.332 2.37512C187.273 2.43676 187.217 2.4951 187.165 2.54927C186.391 3.34101 185.819 3.84641 184.622 3.96486C184.083 4.01828 183.794 3.90806 183.581 3.78063C183.3 3.61257 183.027 3.33963 182.598 2.83715C182.545 2.77525 182.488 2.70599 182.425 2.63097C181.684 1.73591 180.263 0.0219729 177.737 0.229356C175.582 0.406279 174.171 1.68472 173.266 2.50443C173.193 2.56996 173.124 2.63256 173.058 2.69143C172.086 3.55882 171.516 3.95514 170.571 3.95514C169.82 3.95514 169.511 3.66917 168.598 2.64133L168.581 2.62275C168.168 2.15798 167.557 1.47048 166.729 0.965207C165.811 0.405466 164.72 0.113851 163.407 0.23049C160.887 0.454278 159.663 2.00526 158.952 2.90584C158.888 2.98792 158.827 3.0646 158.77 3.13438C158.405 3.58281 158.21 3.75945 158.018 3.86022C157.875 3.93589 157.563 4.05762 156.837 3.96965C156.066 3.8763 155.6 3.67235 155.279 3.46896C154.936 3.25156 154.662 2.97712 154.293 2.56465C154.258 2.52535 154.22 2.48253 154.179 2.4368C153.856 2.07076 153.367 1.51828 152.762 1.09526C151.981 0.550027 151.046 0.222651 149.883 0.222651C148.675 0.222651 147.624 0.628891 146.77 1.09497C145.93 1.55378 145.156 2.14349 144.535 2.617C143.858 3.13324 143.368 3.5051 142.918 3.75311C142.707 3.86875 142.558 3.92657 142.458 3.95342C142.41 3.96619 142.378 3.97055 142.36 3.97202C142.349 3.97292 142.342 3.97282 142.339 3.97262C142.337 3.9725 142.336 3.97236 142.335 3.97232C142.258 3.96211 142.12 3.92547 141.834 3.68152C141.602 3.48347 141.415 3.2842 141.157 3.00826L141.157 3.00806C141.017 2.85892 140.857 2.68739 140.657 2.48156C139.622 1.4172 138.03 0.037712 135.356 0.227678C132.864 0.404713 131.436 1.76135 130.488 2.66235L130.414 2.73268C129.455 3.64176 129.048 3.95514 128.236 3.95514C127.495 3.95514 127.136 3.66434 126.239 2.71509L126.151 2.62184C125.295 1.71302 123.892 0.222651 121.386 0.222651C118.975 0.222651 117.418 1.46149 116.35 2.38892C116.253 2.47294 116.161 2.55302 116.074 2.62931C115.08 3.49503 114.647 3.87261 114.027 3.99009C113.779 4.03703 113.321 3.92754 112.142 2.86464C112.008 2.74418 111.856 2.60275 111.693 2.45118L111.693 2.45107L111.693 2.4509C111.308 2.09346 110.862 1.67971 110.458 1.35168C109.87 0.87358 109.041 0.286685 108.025 0.074981C107.035 -0.131516 106.102 0.123847 105.413 0.412579C104.802 0.668857 104.215 1.02262 103.686 1.39533C103.416 1.51533 103.169 1.69702 102.968 1.93766C102.052 2.67253 101.229 3.49636 100.659 4.13466C99.871 4.65629 99.0762 4.95528 98.3143 4.95528C97.4194 4.95528 96.9523 4.58667 96.1286 3.71523C96.0716 3.65489 96.0102 3.58821 95.9443 3.5166L95.944 3.51632C95.1873 2.69436 93.8325 1.22279 91.6011 1.22279C89.392 1.22279 88.1014 2.57157 87.3362 3.37129L87.3359 3.37157C87.2756 3.43457 87.2186 3.49416 87.1646 3.54941C86.3915 4.34115 85.8195 4.84656 84.6224 4.965C84.0826 5.01842 83.7938 4.9082 83.581 4.78078C83.3003 4.61271 83.0273 4.33977 82.598 3.83729C82.5451 3.77543 82.4878 3.70622 82.4256 3.63125L82.4255 3.63111C81.6838 2.73606 80.2633 1.02212 77.737 1.2295C75.5818 1.40642 74.1706 2.68487 73.2658 3.50458C73.1935 3.57011 73.1244 3.6327 73.0584 3.69157C72.0862 4.55896 71.5165 4.95528 70.5709 4.95528C69.8203 4.95528 69.5115 4.66931 68.5976 3.64148L68.5811 3.62289C68.1679 3.15812 67.5567 2.47063 66.7287 1.96535C65.8115 1.40561 64.7203 1.11399 63.4067 1.23063C60.8866 1.45442 59.663 3.0054 58.9525 3.90598C58.8877 3.98806 58.8272 4.06474 58.7704 4.13452C58.4052 4.58295 58.2098 4.7596 58.0184 4.86036C57.8746 4.93604 57.5632 5.05777 56.8369 4.96979C56.0661 4.87644 55.5999 4.67249 55.2788 4.4691C54.9357 4.2517 54.6623 3.97726 54.2928 3.56479C54.2576 3.52549 54.2197 3.48267 54.1793 3.43695L54.1793 3.43692C53.8556 3.07087 53.367 2.51841 52.7616 2.0954C51.9813 1.55017 51.0462 1.22279 49.8832 1.22279C48.6753 1.22279 47.6236 1.62903 46.7701 2.09512C45.9298 2.55392 45.1559 3.14363 44.5348 3.61714C43.8576 4.13338 43.3684 4.50525 42.9176 4.75325C42.7074 4.86889 42.5582 4.92671 42.4577 4.95356C42.4099 4.96633 42.3784 4.97069 42.3604 4.97216C42.3436 4.97354 42.3364 4.97258 42.3355 4.97247L42.3355 4.97247C42.2581 4.96226 42.1199 4.92561 41.834 4.68166C41.6019 4.48357 41.4153 4.28425 41.157 4.0082C41.0174 3.85907 40.8568 3.68754 40.6568 3.48171C39.6225 2.41734 38.0301 1.03785 35.356 1.22782C32.8639 1.40486 31.436 2.76149 30.4877 3.66249L30.4137 3.73282C29.4552 4.6419 29.0485 4.95528 28.2364 4.95528C27.4951 4.95528 27.1363 4.66448 26.2391 3.71523L26.1512 3.62199C25.2954 2.71316 23.8921 1.22279 21.3862 1.22279C18.9752 1.22279 17.4183 2.46164 16.3502 3.38906C16.2534 3.47308 16.1615 3.55316 16.0739 3.62944C15.0802 4.49517 14.6469 4.87275 14.0267 4.99023C13.7789 5.03717 13.3206 4.92768 12.142 3.86479C12.0084 3.74429 11.8561 3.60282 11.6928 3.45121L11.6928 3.4512C11.3078 3.09372 10.8621 2.6799 10.4585 2.35183C9.87025 1.87372 9.04071 1.28683 8.02551 1.07512C7.03528 0.868626 6.10206 1.12399 5.41334 1.41272C4.69564 1.7136 4.01172 2.14886 3.41584 2.59138C2.22258 3.47753 1.1372 4.5775 0.485819 5.33239C-0.235786 6.16867 -0.142825 7.43158 0.693452 8.15319C1.52973 8.87479 2.79264 8.78183 3.51425 7.94555C4.02741 7.35084 4.90119 6.47069 5.80068 5.80269C6.25117 5.46814 6.64702 5.23281 6.95986 5.10166C7.11619 5.03612 7.21108 5.0135 7.25456 5.00545C7.34668 5.04105 7.55934 5.15005 7.93563 5.45588C8.23889 5.70236 8.51135 5.95601 8.83512 6.25744L8.83514 6.25746C9.02209 6.43151 9.22615 6.62149 9.46313 6.83521C10.4766 7.74926 12.3474 9.3795 14.7712 8.92033C16.5431 8.58468 17.8418 7.42052 18.677 6.6719C18.783 6.57687 18.8815 6.48853 18.9726 6.40944C19.9082 5.59715 20.5091 5.22279 21.3862 5.22279C22.0807 5.22279 22.415 5.49247 23.3321 6.46285L23.3953 6.52978C24.2676 7.45434 25.6837 8.95528 28.2364 8.95528C30.7235 8.95528 32.1581 7.59265 33.1017 6.6964L33.1663 6.63504C34.1195 5.73098 34.6351 5.28911 35.6394 5.21777C36.5274 5.15468 37.0243 5.48328 37.7882 6.26935C37.8689 6.35238 37.9645 6.45433 38.0709 6.56777C38.3981 6.9167 38.8273 7.37435 39.2376 7.72444C39.8529 8.24953 40.6909 8.79015 41.8123 8.9381C43.0197 9.09739 44.0695 8.68497 44.8458 8.2578C45.569 7.85993 46.275 7.32098 46.855 6.8782L46.855 6.87818L46.9599 6.79817C47.6146 6.29902 48.1551 5.8963 48.6871 5.60584C49.2057 5.32265 49.584 5.22279 49.8832 5.22279C50.2272 5.22279 50.3624 5.29872 50.4705 5.37425C50.6665 5.51121 50.8321 5.6961 51.24 6.15173L51.3134 6.23371C51.7231 6.6911 52.3017 7.31815 53.1381 7.84804C53.9966 8.39194 55.0374 8.78108 56.3559 8.94077C57.7189 9.10585 58.8803 8.92709 59.8818 8.39979C60.8357 7.89758 61.458 7.16878 61.872 6.66036L62.004 6.498C62.7725 5.55188 62.9906 5.28332 63.7605 5.21495C64.2281 5.17344 64.464 5.26931 64.645 5.37975C64.9041 5.53788 65.1568 5.79158 65.6083 6.29937C65.6278 6.32122 65.6475 6.34353 65.6676 6.36628C65.6858 6.38683 65.7042 6.40773 65.723 6.42896C66.5541 7.37089 67.9522 8.95528 70.5709 8.95528C73.1189 8.95528 74.6728 7.61189 75.7214 6.67629C76.8509 5.66857 77.3092 5.27807 78.0643 5.21609C78.4088 5.1878 78.5111 5.21172 79.5569 6.43568C79.9924 6.9454 80.6313 7.67676 81.5259 8.21249C82.4884 8.78885 83.6381 9.08194 85.0163 8.94556C87.6554 8.68444 89.0699 7.3236 90.0265 6.34398C91.0174 5.32921 91.176 5.22279 91.6011 5.22279C91.9836 5.22279 92.1693 5.34948 93.2217 6.46285C94.1619 7.45765 95.6471 8.95528 98.3143 8.95528C100.316 8.95528 102.02 8.09806 103.276 7.18649C104.347 6.40889 105.202 5.51249 105.785 4.81434Z" fill="url(#paint0_linear_72_58)"/>
<defs>
<linearGradient id="paint0_linear_72_58" x1="-7.85595" y1="9.00015" x2="212.983" y2="9.00016" gradientUnits="userSpaceOnUse">
<stop stop-color="white"/>
<stop offset="1" stop-color="white" stop-opacity="0"/>
</linearGradient>
</defs>
</svg>
